<svg width="704" height="640" viewBox="647 503 704 640" fill="none" xmlns="http://www.w3.org/2000/svg">
<path d="M1052.49 503C1045.27 503 1038.1 503.276 1031 503.817C1185.83 515.627 1308.01 654.017 1308.01 823C1308.01 991.983 1185.83 1130.37 1031 1142.18C1038.1 1142.72 1045.27 1143 1052.49 1143C1217.35 1143 1351 999.731 1351 823C1351 646.269 1217.35 503 1052.49 503Z" fill="black"/>
<path d="M945.508 503C952.735 503 959.902 503.276 967 503.817C812.172 515.627 689.986 654.017 689.986 823C689.986 991.983 812.172 1130.37 967 1142.18C959.902 1142.72 952.735 1143 945.508 1143C780.647 1143 647 999.731 647 823C647 646.269 780.647 503 945.508 503Z" fill="black"/>
<path d="M976.1 820.466L968.245 857.752L986.534 853.9L992.4 859.134L1001.5 848.936L1006.61 854.663L996.999 863.237L1011.62 876.284L996.5 1052L981.448 877.112L996.999 863.237L992.4 859.134L981 871.91L980.802 869.599H965.75L968.245 857.752L961.401 859.193V869.599H930L934.164 864.93L961.401 859.193V844.198L953.285 843.499L971.1 823.534L968.708 812.181L976.1 820.466ZM961.401 893.878L960.4 895L961.401 890.247V893.878ZM981.448 877.112L961.401 895V893.878L981 871.91L981.448 877.112ZM1032.6 883.79V895L1011.62 876.284L1012.2 869.599H1019.94L1032.6 883.79ZM1042.6 895L1032.6 883.79V869.599H1037.25L1042.6 895ZM965.75 869.599L961.401 890.247V869.599H965.75ZM953.285 843.499L934.164 864.93L912 869.6L942.311 842.555L953.285 843.499ZM1082 869.6L1058.6 864.671L1039.79 843.579L1051.69 842.555L1082 869.6ZM1039.79 843.579L1032.6 844.198V847.519L1035.17 859.735L1058.6 864.671L1063 869.599H1037.25L1035.17 859.735L1032.6 859.193V869.599H1019.94L1006.61 854.663L1007.47 853.9L1032.6 859.193V847.519L1029.29 831.817L1039.79 843.579ZM958.064 828.5L942.311 842.555L779 828.5L942.311 814.444L958.064 828.5ZM1215 828.5L1051.69 842.555L1035.94 828.5L1051.69 814.444L1215 828.5ZM1032.6 812.802L1033.66 812.893L1026.9 820.466L1029.29 831.817L1021.9 823.534L1027.07 798.968L1032.6 797.805V812.802ZM954.604 796.374L961.401 803.991V797.806L965.879 798.748L968.708 812.181L961.401 803.991V812.802L942.311 814.444L912 787.4L954.604 796.374ZM1051.69 814.444L1033.66 812.893L1050.48 794.039L1082 787.4L1051.69 814.444ZM978.064 774.401H975.301L988.852 786.492L996.073 794.587L986.534 803.1L965.879 798.748L961.401 777.49V774.401H960.751L955.4 749L978.064 774.401ZM1032.6 772.742V762L1018.7 774.401H1032.25L1027.07 798.968L1007.47 803.1L997.368 794.091L1000.25 790.86L1018.7 774.401H1017.2L1017 772.089L1037.6 749L1032.6 772.742ZM961.401 777.49V797.806L954.604 796.374L935 774.401H960.751L961.401 777.49ZM1050.48 794.039L1032.6 797.805V774.401H1068L1050.48 794.039ZM997.368 794.091L996.5 795.064L996.073 794.587L996.999 793.762L997.368 794.091ZM1017 772.089L1000.25 790.86L996.999 793.762L988.852 786.492L978.064 774.401H985.802L1001.5 592L1017 772.089ZM961.401 774.401H975.301L961.401 762V774.401ZM1032.6 774.401H1032.25L1032.6 772.742V774.401Z" fill="black"/>
</svg>
