<svg width="2000" height="2000" viewBox="0 0 2000 2000" fill="none" xmlns="http://www.w3.org/2000/svg">
<rect width="2000" height="2000" fill="black"/>
<path d="M719.488 1564.3C719.488 1621.14 682.112 1661.07 628.352 1661.07C574.848 1661.07 537.984 1621.39 537.984 1564.3C537.984 1507.47 575.104 1467.54 628.608 1467.54C682.112 1467.54 719.488 1507.22 719.488 1564.3ZM684.928 1564.3C684.928 1524.37 662.912 1499.02 628.608 1499.02C594.304 1499.02 572.288 1524.37 572.288 1564.3C572.288 1604.24 594.304 1629.58 628.608 1629.58C662.912 1629.58 684.928 1603.73 684.928 1564.3ZM808.354 1658H775.586V1470.86H847.01C889.506 1470.86 914.338 1492.37 914.338 1529.23C914.338 1554.32 902.562 1572.24 880.546 1581.2L916.13 1658H880.29L848.546 1588.11H808.354V1658ZM808.354 1500.05V1559.18H847.01C867.746 1559.18 880.034 1548.18 880.034 1529.23C880.034 1510.54 867.746 1500.05 847.01 1500.05H808.354ZM1005.45 1470.86V1658H972.686V1470.86H1005.45ZM1243.29 1564.3C1243.29 1621.14 1205.91 1661.07 1152.15 1661.07C1098.65 1661.07 1061.78 1621.39 1061.78 1564.3C1061.78 1507.47 1098.9 1467.54 1152.41 1467.54C1205.91 1467.54 1243.29 1507.22 1243.29 1564.3ZM1208.73 1564.3C1208.73 1524.37 1186.71 1499.02 1152.41 1499.02C1118.1 1499.02 1096.09 1524.37 1096.09 1564.3C1096.09 1604.24 1118.1 1629.58 1152.41 1629.58C1186.71 1629.58 1208.73 1603.73 1208.73 1564.3ZM1331.64 1658H1299.39V1470.86H1331.9L1419.71 1603.47V1470.86H1451.96V1658H1419.71L1331.64 1525.39V1658Z" fill="black"/>
<path d="M1052.49 503C1045.27 503 1038.1 503.276 1031 503.817C1185.83 515.627 1308.01 654.017 1308.01 823C1308.01 991.983 1185.83 1130.37 1031 1142.18C1038.1 1142.72 1045.27 1143 1052.49 1143C1217.35 1143 1351 999.731 1351 823C1351 646.269 1217.35 503 1052.49 503Z" fill="white"/>
<path d="M945.508 503C952.735 503 959.902 503.276 967 503.817C812.172 515.627 689.986 654.017 689.986 823C689.986 991.983 812.172 1130.37 967 1142.18C959.902 1142.72 952.735 1143 945.508 1143C780.647 1143 647 999.731 647 823C647 646.269 780.647 503 945.508 503Z" fill="white"/>
<path d="M976.1 820.466L968.245 857.752L986.534 853.9L992.4 859.134L1001.5 848.936L1006.61 854.663L996.999 863.237L1011.62 876.284L996.5 1052L981.448 877.112L996.999 863.237L992.4 859.134L981 871.91L980.802 869.599H965.75L968.245 857.752L961.401 859.193V869.599H930L934.164 864.93L961.401 859.193V844.198L953.285 843.499L971.1 823.534L968.708 812.181L976.1 820.466ZM961.401 893.878L960.4 895L961.401 890.247V893.878ZM981.448 877.112L961.401 895V893.878L981 871.91L981.448 877.112ZM1032.6 883.79V895L1011.62 876.284L1012.2 869.599H1019.94L1032.6 883.79ZM1042.6 895L1032.6 883.79V869.599H1037.25L1042.6 895ZM965.75 869.599L961.401 890.247V869.599H965.75ZM953.285 843.499L934.164 864.93L912 869.6L942.311 842.555L953.285 843.499ZM1082 869.6L1058.6 864.671L1039.79 843.579L1051.69 842.555L1082 869.6ZM1039.79 843.579L1032.6 844.198V847.519L1035.17 859.735L1058.6 864.671L1063 869.599H1037.25L1035.17 859.735L1032.6 859.193V869.599H1019.94L1006.61 854.663L1007.47 853.9L1032.6 859.193V847.519L1029.29 831.817L1039.79 843.579ZM958.064 828.5L942.311 842.555L779 828.5L942.311 814.444L958.064 828.5ZM1215 828.5L1051.69 842.555L1035.94 828.5L1051.69 814.444L1215 828.5ZM1032.6 812.802L1033.66 812.893L1026.9 820.466L1029.29 831.817L1021.9 823.534L1027.07 798.968L1032.6 797.805V812.802ZM954.604 796.374L961.401 803.991V797.806L965.879 798.748L968.708 812.181L961.401 803.991V812.802L942.311 814.444L912 787.4L954.604 796.374ZM1051.69 814.444L1033.66 812.893L1050.48 794.039L1082 787.4L1051.69 814.444ZM978.064 774.401H975.301L988.852 786.492L996.073 794.587L986.534 803.1L965.879 798.748L961.401 777.49V774.401H960.751L955.4 749L978.064 774.401ZM1032.6 772.742V762L1018.7 774.401H1032.25L1027.07 798.968L1007.47 803.1L997.368 794.091L1000.25 790.86L1018.7 774.401H1017.2L1017 772.089L1037.6 749L1032.6 772.742ZM961.401 777.49V797.806L954.604 796.374L935 774.401H960.751L961.401 777.49ZM1050.48 794.039L1032.6 797.805V774.401H1068L1050.48 794.039ZM997.368 794.091L996.5 795.064L996.073 794.587L996.999 793.762L997.368 794.091ZM1017 772.089L1000.25 790.86L996.999 793.762L988.852 786.492L978.064 774.401H985.802L1001.5 592L1017 772.089ZM961.401 774.401H975.301L961.401 762V774.401ZM1032.6 774.401H1032.25L1032.6 772.742V774.401Z" fill="white"/>
<path d="M686.736 1326.61C700.731 1343.33 707.728 1365.26 707.728 1392.4C707.728 1419.37 700.389 1441.64 685.712 1459.22C671.035 1476.79 652.688 1485.58 630.672 1485.58C608.827 1485.58 590.053 1476.62 574.352 1458.7C558.992 1440.61 551.483 1418.34 551.824 1391.89C552.165 1365.26 559.675 1343.5 574.352 1326.61C589.2 1309.54 608.144 1301.01 631.184 1301.01C654.395 1301.01 672.912 1309.54 686.736 1326.61ZM630.928 1476.62C646.8 1476.62 658.832 1469.03 667.024 1453.84C675.216 1438.65 679.312 1418.51 679.312 1393.42C679.312 1368.17 675.728 1348.37 668.56 1334.03C660.027 1317.31 646.885 1308.94 629.136 1308.94C611.557 1308.94 598.672 1316.88 590.48 1332.75C583.653 1346.23 580.24 1366.37 580.24 1393.17C580.24 1448.81 597.136 1476.62 630.928 1476.62ZM867.414 1468.18L818.518 1398.29H802.902L803.414 1474.06H827.222V1482H756.054V1474.06H779.862V1313.55H756.054V1305.62H833.622C854.273 1305.62 869.974 1309.71 880.726 1317.9C891.478 1326.1 896.854 1337.02 896.854 1350.67C896.854 1364.33 892.075 1375.42 882.518 1383.95C873.302 1391.63 861.185 1395.98 846.166 1397.01L898.646 1468.18C901.377 1471.59 907.435 1473.72 916.822 1474.58V1482.26C904.363 1481.74 884.651 1481.74 857.686 1482.26L857.942 1474.06H865.11C867.499 1473.55 868.694 1472.7 868.694 1471.5C868.694 1470.14 868.267 1469.03 867.414 1468.18ZM825.174 1390.86C856.235 1390.86 871.425 1377.47 870.742 1350.67C870.059 1325.93 856.662 1313.55 830.55 1313.55H803.414L802.902 1390.86H825.174ZM1027.21 1474.06V1482H953.994V1474.06H978.058V1313.55H953.994V1305.62H1027.21V1313.55H1003.4V1474.06H1027.21ZM1213.04 1326.61C1227.03 1343.33 1234.03 1365.26 1234.03 1392.4C1234.03 1419.37 1226.69 1441.64 1212.01 1459.22C1197.33 1476.79 1178.99 1485.58 1156.97 1485.58C1135.13 1485.58 1116.35 1476.62 1100.65 1458.7C1085.29 1440.61 1077.78 1418.34 1078.12 1391.89C1078.47 1365.26 1085.97 1343.5 1100.65 1326.61C1115.5 1309.54 1134.44 1301.01 1157.48 1301.01C1180.69 1301.01 1199.21 1309.54 1213.04 1326.61ZM1157.23 1476.62C1173.1 1476.62 1185.13 1469.03 1193.32 1453.84C1201.52 1438.65 1205.61 1418.51 1205.61 1393.42C1205.61 1368.17 1202.03 1348.37 1194.86 1334.03C1186.33 1317.31 1173.19 1308.94 1155.44 1308.94C1137.86 1308.94 1124.97 1316.88 1116.78 1332.75C1109.95 1346.23 1106.54 1366.37 1106.54 1393.17C1106.54 1448.81 1123.44 1476.62 1157.23 1476.62ZM1454.9 1305.62V1313.55C1445 1313.55 1439.2 1314.41 1437.49 1316.11C1433.05 1320.55 1430.83 1327.12 1430.83 1335.82L1431.35 1486.35H1425.46L1317.17 1319.44V1452.05C1317.17 1460.92 1319.3 1467.41 1323.57 1471.5C1325.28 1473.21 1331.08 1474.06 1340.98 1474.06V1482H1284.4V1474.06C1293.96 1474.06 1299.59 1473.3 1301.3 1471.76C1306.08 1467.66 1308.47 1461.09 1308.47 1452.05V1319.44C1307.95 1315.51 1305.39 1313.55 1300.79 1313.55H1286.45V1305.62H1337.65L1422.39 1437.46V1335.82C1422.39 1327.12 1420 1320.46 1415.22 1315.86C1413.34 1314.32 1407.71 1313.55 1398.32 1313.55V1305.62H1454.9Z" fill="white"/>
</svg>
